<?xml version="1.0" encoding="UTF-8" standalone="no"?>
<!-- Created with Inkscape (http://www.inkscape.org/) -->

<svg
   width="38.966011mm"
   height="8.6618032mm"
   viewBox="0 0 38.966011 8.6618032"
   version="1.1"
   id="svg1"
   inkscape:version="1.3.2 (091e20ef0f, 2023-11-25)"
   sodipodi:docname="fastscala_logo.svg"
   xmlns:inkscape="http://www.inkscape.org/namespaces/inkscape"
   xmlns:sodipodi="http://sodipodi.sourceforge.net/DTD/sodipodi-0.dtd"
   xmlns="http://www.w3.org/2000/svg"
   xmlns:svg="http://www.w3.org/2000/svg">
  <sodipodi:namedview
     id="namedview1"
     pagecolor="#ffffff"
     bordercolor="#666666"
     borderopacity="1.0"
     inkscape:showpageshadow="2"
     inkscape:pageopacity="0.0"
     inkscape:pagecheckerboard="0"
     inkscape:deskcolor="#d1d1d1"
     inkscape:document-units="mm"
     inkscape:zoom="5.580303"
     inkscape:cx="72.1287"
     inkscape:cy="9.587293"
     inkscape:window-width="1920"
     inkscape:window-height="1029"
     inkscape:window-x="0"
     inkscape:window-y="0"
     inkscape:window-maximized="1"
     inkscape:current-layer="layer1" />
  <defs
     id="defs1" />
  <g
     inkscape:label="Layer 1"
     inkscape:groupmode="layer"
     id="layer1"
     transform="translate(-133.35,-143.13958)">
    <g
       aria-label="F"
       id="text6239"
       style="font-size:12.0676px;line-height:1.25;fill:#0053b4;fill-opacity:1;stroke-width:0.646476"
       transform="translate(79.452453,59.156565)"
       inkscape:export-filename="../../../../../../../../../../home/david/Downloads/Logo_Square.png"
       inkscape:export-xdpi="600"
       inkscape:export-ydpi="600">
      <path
         d="m 53.897547,84.147998 h 5.703827 v 1.543805 h -3.064039 v 1.779499 h 2.686926 v 1.697007 h -2.686926 v 3.311519 h -2.639788 z"
         id="path6802"
         style="fill:#0053b4;fill-opacity:1" />
    </g>
    <g
       aria-label="S"
       id="text6712"
       style="font-size:12.0676px;line-height:1.25;fill:#ec6900;fill-opacity:1;stroke-width:0.646476"
       transform="translate(79.452453,59.156565)">
      <path
         d="m 66.437861,86.304613 q -0.241587,-0.106063 -0.565669,-0.212126 -0.318188,-0.111955 -0.671731,-0.200341 -0.347651,-0.08839 -0.707086,-0.141417 -0.359436,-0.05892 -0.677624,-0.05892 -0.553884,0 -0.86618,0.141417 -0.312297,0.141418 -0.312297,0.477283 0,0.159095 0.106063,0.282835 0.111955,0.117847 0.312296,0.22391 0.200341,0.100171 0.477283,0.200341 0.282835,0.09428 0.624593,0.200341 l 0.430144,0.135525 q 0.542099,0.164987 0.972243,0.400682 0.430144,0.229803 0.724763,0.547992 0.300512,0.312296 0.459606,0.718871 0.159094,0.406574 0.159094,0.925104 0,0.606915 -0.194448,1.107768 -0.188556,0.49496 -0.595131,0.848503 -0.406574,0.353543 -1.042952,0.547991 -0.630485,0.194449 -1.520234,0.194449 -0.78958,0 -1.573267,-0.129632 -0.777794,-0.129633 -1.573266,-0.453714 v -1.944486 q 0.760117,0.388897 1.473096,0.571561 0.718871,0.176771 1.414172,0.176771 0.571561,0 0.830826,-0.182663 0.265157,-0.182664 0.265157,-0.506745 0,-0.194449 -0.100171,-0.329974 -0.09428,-0.141417 -0.312296,-0.259265 -0.212126,-0.117847 -0.559776,-0.235695 -0.347651,-0.12374 -0.842611,-0.276942 -0.49496,-0.14731 -0.919212,-0.37122 -0.418359,-0.223911 -0.724763,-0.536207 -0.306404,-0.318189 -0.483175,-0.736548 -0.170879,-0.418359 -0.170879,-0.954566 0,-0.553884 0.194448,-1.01349 0.194449,-0.459606 0.595131,-0.783687 0.400682,-0.329973 1.01349,-0.512637 0.6187,-0.182664 1.467203,-0.182664 0.335866,0 0.712979,0.02946 0.377112,0.02946 0.766009,0.08839 0.39479,0.05892 0.777795,0.153202 0.383005,0.09428 0.724763,0.22391 z"
         style="font-family:Candal;-inkscape-font-specification:'Candal, @wght=700';font-variation-settings:'wght' 700;fill:#ec6900;fill-opacity:1"
         id="path6799" />
    </g>
    <g
       aria-label="FAST SCALA"
       id="text6718"
       style="font-size:5.34463px;line-height:1.25;fill:#ffffff;stroke-width:0.286318"
       transform="translate(79.452453,59.156565)">
      <path
         d="m 69.556484,89.073625 v 1.390961 H 70.9892 v 0.320991 h -1.432716 v 1.709342 h -0.336649 v -3.742285 h 2.106014 v 0.320991 z"
         style="font-family:Abel;-inkscape-font-specification:'Abel, Normal'"
         id="path6780" />
      <path
         d="m 73.147407,91.623285 h -1.184796 l -0.24531,0.871634 h -0.349697 l 1.096066,-3.742285 h 0.177459 l 1.101286,3.742285 H 73.395327 Z M 72.05395,91.302294 h 1.004728 l -0.49323,-1.725 -0.01044,-0.138313 -0.01044,0.138313 z"
         style="font-family:Abel;-inkscape-font-specification:'Abel, Normal'"
         id="path6782" />
      <path
         d="m 76.273807,91.628504 q 0,0.190507 -0.07829,0.357527 -0.07568,0.167019 -0.206164,0.292284 -0.127875,0.125265 -0.300114,0.198336 -0.169629,0.07046 -0.360136,0.07046 h -0.268797 q -0.190507,0 -0.362746,-0.07046 -0.16963,-0.07307 -0.300114,-0.198336 Q 74.269571,92.15305 74.19128,91.986031 74.1156,91.819011 74.1156,91.628504 v -0.148752 l 0.336649,-0.0548 v 0.203555 q 0,0.125265 0.04958,0.234872 0.05219,0.106997 0.138313,0.190506 0.08612,0.0809 0.198336,0.127875 0.114826,0.04697 0.24009,0.04697 h 0.234872 q 0.125265,0 0.237481,-0.04697 0.112216,-0.04697 0.198336,-0.127875 0.08612,-0.08351 0.135703,-0.190506 0.05219,-0.109607 0.05219,-0.234872 v -0.112216 q 0,-0.193117 -0.07568,-0.320991 -0.07568,-0.127875 -0.200945,-0.216604 -0.125265,-0.09134 -0.284456,-0.153971 -0.156581,-0.06263 -0.3236,-0.125265 -0.16702,-0.06263 -0.326211,-0.138313 -0.156581,-0.07568 -0.281845,-0.187897 -0.125265,-0.114826 -0.200946,-0.279236 -0.07568,-0.16441 -0.07568,-0.404501 v -0.07046 q 0,-0.190507 0.07046,-0.357527 0.07307,-0.167019 0.198335,-0.292284 0.125265,-0.125265 0.292285,-0.195726 0.169629,-0.07307 0.360136,-0.07307 h 0.240091 q 0.190507,0 0.357526,0.07307 0.16702,0.07046 0.292285,0.195726 0.125265,0.125265 0.195726,0.292284 0.07307,0.16702 0.07307,0.357527 v 0.09656 l -0.336649,0.0548 v -0.151361 q 0,-0.125265 -0.04697,-0.232262 -0.04697,-0.109607 -0.127875,-0.190507 -0.0809,-0.0809 -0.190506,-0.127874 -0.106997,-0.04697 -0.232262,-0.04697 h -0.208775 q -0.125265,0 -0.234871,0.04697 -0.106997,0.04697 -0.190507,0.127874 -0.0809,0.0809 -0.127874,0.190507 -0.04698,0.106997 -0.04698,0.232262 v 0.07046 q 0,0.180068 0.07568,0.302723 0.07568,0.122655 0.200946,0.211385 0.125264,0.08612 0.281845,0.151361 0.159191,0.06263 0.326211,0.130484 0.167019,0.06524 0.3236,0.146143 0.159191,0.07829 0.284456,0.195726 0.125264,0.114826 0.200945,0.281845 0.07568,0.16702 0.07568,0.407111 z"
         style="font-family:Abel;-inkscape-font-specification:'Abel, Normal'"
         id="path6784" />
      <path
         d="m 77.904858,89.073625 v 3.421294 h -0.336649 v -3.421294 h -0.892511 v -0.320991 h 2.121672 v 0.320991 z"
         style="font-family:Abel;-inkscape-font-specification:'Abel, Normal'"
         id="path6786" />
      <path
         d="m 82.612726,91.628504 q 0,0.190507 -0.07829,0.357527 -0.07568,0.167019 -0.206165,0.292284 -0.127875,0.125265 -0.300114,0.198336 -0.169629,0.07046 -0.360136,0.07046 h -0.268797 q -0.190507,0 -0.362746,-0.07046 -0.169629,-0.07307 -0.300114,-0.198336 -0.127874,-0.125265 -0.206165,-0.292284 -0.07568,-0.16702 -0.07568,-0.357527 v -0.148752 l 0.336649,-0.0548 v 0.203555 q 0,0.125265 0.04958,0.234872 0.05219,0.106997 0.138313,0.190506 0.08612,0.0809 0.198336,0.127875 0.114826,0.04697 0.240091,0.04697 h 0.234871 q 0.125265,0 0.237481,-0.04697 0.112216,-0.04697 0.198336,-0.127875 0.08612,-0.08351 0.135703,-0.190506 0.05219,-0.109607 0.05219,-0.234872 v -0.112216 q 0,-0.193117 -0.07568,-0.320991 -0.07568,-0.127875 -0.200945,-0.216604 -0.125265,-0.09134 -0.284456,-0.153971 -0.156581,-0.06263 -0.3236,-0.125265 -0.16702,-0.06263 -0.326211,-0.138313 -0.156581,-0.07568 -0.281845,-0.187897 -0.125265,-0.114826 -0.200946,-0.279236 -0.07568,-0.16441 -0.07568,-0.404501 v -0.07046 q 0,-0.190507 0.07046,-0.357527 0.07307,-0.167019 0.198336,-0.292284 0.125264,-0.125265 0.292284,-0.195726 0.169629,-0.07307 0.360136,-0.07307 h 0.240091 q 0.190507,0 0.357527,0.07307 0.167019,0.07046 0.292284,0.195726 0.125265,0.125265 0.195726,0.292284 0.07307,0.16702 0.07307,0.357527 v 0.09656 l -0.336649,0.0548 v -0.151361 q 0,-0.125265 -0.04697,-0.232262 -0.04697,-0.109607 -0.127874,-0.190507 -0.0809,-0.0809 -0.190507,-0.127874 -0.106997,-0.04697 -0.232262,-0.04697 h -0.208775 q -0.125264,0 -0.234871,0.04697 -0.106997,0.04697 -0.190507,0.127874 -0.0809,0.0809 -0.127874,0.190507 -0.04698,0.106997 -0.04698,0.232262 v 0.07046 q 0,0.180068 0.07568,0.302723 0.07568,0.122655 0.200946,0.211385 0.125265,0.08612 0.281845,0.151361 0.159191,0.06263 0.326211,0.130484 0.167019,0.06524 0.3236,0.146143 0.159191,0.07829 0.284456,0.195726 0.125265,0.114826 0.200945,0.281845 0.07568,0.16702 0.07568,0.407111 z"
         style="font-family:Abel;-inkscape-font-specification:'Abel, Normal'"
         id="path6788" />
      <path
         d="m 85.386818,91.628504 q 0,0.190507 -0.07307,0.357527 -0.07046,0.167019 -0.195726,0.292284 -0.125265,0.125265 -0.292285,0.198336 -0.16702,0.07046 -0.357526,0.07046 h -0.266188 q -0.190507,0 -0.360136,-0.07046 -0.16702,-0.07307 -0.292285,-0.198336 -0.125264,-0.125265 -0.198335,-0.292284 -0.07046,-0.16702 -0.07046,-0.357527 v -2.009455 q 0,-0.190507 0.07046,-0.357527 0.07307,-0.167019 0.198335,-0.292284 0.125265,-0.125265 0.292285,-0.195726 0.169629,-0.07307 0.360136,-0.07307 h 0.266188 q 0.190506,0 0.357526,0.07307 0.16702,0.07046 0.292285,0.195726 0.125264,0.125265 0.195726,0.292284 0.07307,0.16702 0.07307,0.357527 v 0.151361 l -0.336649,0.05219 v -0.203555 q 0,-0.125265 -0.04697,-0.232262 -0.04698,-0.109607 -0.127875,-0.190507 -0.0809,-0.0809 -0.190507,-0.127874 -0.106997,-0.04697 -0.232261,-0.04697 H 84.21768 q -0.125265,0 -0.234871,0.04697 -0.106997,0.04697 -0.190507,0.127874 -0.0809,0.0809 -0.127875,0.190507 -0.04697,0.106997 -0.04697,0.232262 V 91.6285 q 0,0.125265 0.04697,0.234872 0.04698,0.106997 0.127875,0.190506 0.08351,0.0809 0.190507,0.127875 0.109606,0.04697 0.234871,0.04697 h 0.234872 q 0.125264,0 0.232261,-0.04697 0.109607,-0.04697 0.190507,-0.127875 0.0809,-0.08351 0.127875,-0.190506 0.04697,-0.109607 0.04697,-0.234872 v -0.203555 l 0.336649,0.0548 v 0.148752 z"
         style="font-family:Abel;-inkscape-font-specification:'Abel, Normal'"
         id="path6790" />
      <path
         d="m 87.539807,91.623285 h -1.184796 l -0.24531,0.871634 h -0.349698 l 1.096067,-3.742285 h 0.177458 l 1.101286,3.742285 H 87.787726 Z M 86.44635,91.302294 h 1.004727 l -0.49323,-1.725 -0.01044,-0.138313 -0.01044,0.138313 z"
         style="font-family:Abel;-inkscape-font-specification:'Abel, Normal'"
         id="path6792" />
      <path
         d="m 88.560193,92.494919 v -3.742285 h 0.336649 v 3.421294 h 1.432715 v 0.320991 z"
         style="font-family:Abel;-inkscape-font-specification:'Abel, Normal'"
         id="path6794" />
      <path
         d="m 92.268551,91.623285 h -1.184796 l -0.24531,0.871634 h -0.349697 l 1.096066,-3.742285 h 0.177459 l 1.101286,3.742285 h -0.347088 z m -1.093457,-0.320991 h 1.004728 l -0.49323,-1.725 -0.01044,-0.138313 -0.01044,0.138313 z"
         style="font-family:Abel;-inkscape-font-specification:'Abel, Normal'"
         id="path6796" />
    </g>
  </g>
</svg>
